# xmcd
#
# Track frame offsets: 
#        150
#        19350
#        31727
#        54992
#        74737
#        89382
#        120270
#        135510
#        149165
#        169222
#        187395
#        204492
#        225392
#        250397
#        271487
#
# Disc length: 3781 seconds
#
# Revision: 1
# Processed by: cddbd v1.5.2PL0 Copyright (c) Steve Scherf et al.
# Submitted via: ExactAudioCopyFreeDBPlugin 1.0
#
DISCID=e10ec30f
DTITLE=John Lee Hooker - Gitanes Blues
DYEAR=1999
DGENRE=Blues
TTITLE0=Shake It Baby
TTITLE1=I'm In The Mood
TTITLE2=It Serve You To Suffer
TTITLE3=You're Wrong
TTITLE4=Let's Go Out Tonight
TTITLE5=Sugar Mama
TTITLE6=I'll Never Trust Your Love Again
TTITLE7=One Bourbon, One Scotch, One Beer
TTITLE8=Nobody Knows
TTITLE9=Catfish Blues
TTITLE10=House Rent Blues
TTITLE11=Let's Make It Baby
TTITLE12=I'm Bad Like Jessie James
TTITLE13=I'll Never Get Out Of These Blues Alive
TTITLE14=Boom Boom Boom
EXTD=
EXTT0=
EXTT1=
EXTT2=
EXTT3=
EXTT4=
EXTT5=
EXTT6=
EXTT7=
EXTT8=
EXTT9=
EXTT10=
EXTT11=
EXTT12=
EXTT13=
EXTT14=
PLAYORDER=
